Coordinates
version=1
nRows=6
nColumns=63
inDegrees=yes

Units are S.I. units (second, meters, Newtons, ...)
If the header above contains a line with 'inDegrees', this indicates whether rotational values are in degrees (yes) or radians (no).

endheader
time	pelvis_tilt	pelvis_list	pelvis_rotation	pelvis_tx	pelvis_ty	pelvis_tz	hip_flexion_r	hip_adduction_r	hip_rotation_r	knee_angle_r	knee_angle_r_beta	ankle_angle_r	subtalar_angle_r	mtp_angle_r	hip_flexion_l	hip_adduction_l	hip_rotation_l	knee_angle_l	knee_angle_l_beta	ankle_angle_l	subtalar_angle_l	mtp_angle_l	L5_S1_Flex_Ext	L5_S1_Lat_Bending	L5_S1_axial_rotation	L4_L5_Flex_Ext	L4_L5_Lat_Bending	L4_L5_axial_rotation	L3_L4_Flex_Ext	L3_L4_Lat_Bending	L3_L4_axial_rotation	L2_L3_Flex_Ext	L2_L3_Lat_Bending	L2_L3_axial_rotation	L1_L2_Flex_Ext	L1_L2_Lat_Bending	L1_L2_axial_rotation	L1_T12_Flex_Ext	L1_T12_Lat_Bending	L1_T12_axial_rotation	Abs_r3	Abs_r2	Abs_r1	Abs_t1	Abs_t2	neck_flexion	neck_bending	neck_rotation	arm_flex_r	arm_add_r	arm_rot_r	elbow_flex_r	pro_sup_r	wrist_flex_r	wrist_dev_r	arm_flex_l	arm_add_l	arm_rot_l	elbow_flex_l	pro_sup_l	wrist_flex_l	wrist_dev_l
      0.00000000	      8.26098238	     -2.29276108	     94.50045654	      0.11789556	      0.79308859	      0.84948878	     11.28891057	      5.35051195	     -0.08547144	     12.59529659	      0.21982940	     30.97443830	      5.72063984	      0.00000000	      8.90847418	     -3.17754961	     13.21790606	      8.05330950	      0.14055677	     31.02628340	    -10.70790499	      0.00000000	      0.22592207	      0.69080021	      0.15357349	      0.41955988	      0.91876428	      0.16317184	      0.37116737	      1.67961163	      0.16317184	      0.25820633	      1.67961163	      0.13437681	      0.20979123	      1.40867979	      0.12477846	      0.12909187	      1.07004952	      0.11518012	      1.61373876	      7.81447013	      0.85412969	      0.00000000	      0.00000000	     26.39490593	     12.30207544	      9.50743316	     20.87501649	    -15.85319014	     65.77988153	     56.18420476	     88.80238775	     14.24398202	     12.01126435	     12.05016136	    -13.86610217	     52.86762797	     49.74919083	     88.54457400	    -18.75165207	    -15.31983962
      0.01694915	      9.26217751	     -1.91023038	     97.39154352	      0.11350253	      0.79310964	      0.84829594	     10.92842569	      5.94038849	     -1.52676073	     12.19350879	      0.21281688	     31.13150250	      3.71129279	      0.00000000	      9.54220793	     -3.82672996	     14.38291968	      8.74334220	      0.15260011	     32.06874383	     -8.43786652	      0.00000000	      0.23807584	      0.83096543	     -0.56592813	      0.44213064	      1.10518402	     -0.60129864	      0.39113480	      2.02040935	     -0.60129864	      0.27209688	      2.02040935	     -0.49518711	      0.22107723	      1.69450471	     -0.45981660	      0.13603654	      1.28716545	     -0.42444610	      1.70055193	      9.40004716	     -3.14752247	      0.00000000	      0.00000000	     25.53458820	     11.18289816	     11.64105034	     22.88306942	    -15.45339179	     70.52621447	     55.32322122	     89.16296506	     12.81609591	      9.74935619	      8.36903857	    -12.45511833	     43.42189805	     51.50966119	     78.67670962	     -8.06737201	     -9.84713445
      0.03389831	     10.04268068	     -1.47069461	     99.84745819	      0.11035371	      0.79327041	      0.84797455	     10.58464459	      6.46356920	     -2.55993687	     11.87534078	      0.20726380	     31.08975246	      1.71921939	      0.00000000	     10.30820021	     -4.50684892	     12.75020294	      9.90420823	      0.17286104	     33.77007211	     -2.90649151	      0.00000000	      0.24138204	      0.92702683	     -1.04672890	      0.44827059	      1.23294569	     -1.11214946	      0.39656656	      2.25397304	     -1.11214946	      0.27587554	      2.25397304	     -0.91588779	      0.22414737	      1.89039312	     -0.85046724	      0.13792570	      1.43596457	     -0.78504668	      1.72416780	     10.48671295	     -5.82159215	      0.00000000	      0.00000000	     24.53200888	     10.19342162	     12.31399040	     24.11352170	    -15.35024823	     73.53492426	     54.89079094	     89.25170710	     11.79152538	      8.16872440	      7.99087171	    -12.13811955	     45.58259247	     53.06114221	     40.98877281	     -4.73711606	     -8.59109150
      0.05084746	     10.58843611	     -1.10827556	    101.66627588	      0.10811234	      0.79341581	      0.84754678	     10.31845913	      6.81057747	     -3.61301763	     11.67600610	      0.20378475	     31.11061020	      0.67799796	      0.00000000	     10.73191259	     -4.89164087	     13.09102289	     10.62385161	      0.18542119	     34.42220261	     -0.98790496	      0.00000000	      0.24740987	      0.98325949	     -1.37571351	      0.45946487	      1.30773512	     -1.46169560	      0.40646968	      2.39069712	     -1.46169560	      0.28276474	      2.39069712	     -1.20374932	      0.22974481	      2.00506274	     -1.11776722	      0.14137000	      1.52306894	     -1.03178513	      1.76722397	     11.12282796	     -7.65130581	      0.00000000	      0.00000000	     23.48353536	      9.64872577	     12.22068053	     24.78231646	    -15.39562188	     75.28430156	     54.79291726	     89.21997819	     11.55538943	      7.23083185	      7.81373116	    -11.80002399	     44.24073208	     53.96916021	     40.40666836	     -5.97732836	     -4.23636693
      0.06779661	     11.02521511	     -0.81674798	    103.08144571	      0.10681506	      0.79353497	      0.84710684	     10.08254522	      7.17374208	     -4.16730968	     11.44554630	      0.19976247	     30.97849176	     -0.50864597	      0.00000000	     11.23362337	     -5.42890077	     11.10011101	     11.52344644	      0.20112208	     35.52305395	      3.54261443	      0.00000000	      0.25411372	      1.01374826	     -1.60418928	      0.47191460	      1.34828518	     -1.70445111	      0.41748344	      2.46482752	     -1.70445111	      0.29042658	      2.46482752	     -1.40366562	      0.23597000	      2.06723545	     -1.30340379	      0.14520058	      1.57029605	     -1.20314196	      1.81510892	     11.46772305	     -8.92201951	      0.00000000	      0.00000000	     22.54662735	      9.46252866	     11.64422317	     24.94349106	    -15.54350029	     75.79924954	     54.88842877	     89.06406029	     12.13474103	      6.72799293	      7.77909159	    -11.46322783	     42.63016292	     54.44426098	     48.13550917	     -6.91306762	      0.37124452
      0.08474576	     11.20718750	     -0.55569116	    103.76306877	      0.10593112	      0.79389868	      0.84632113	      9.86865446	      7.31129784	     -4.57806156	     11.45811641	      0.19998186	     31.02475440	     -0.85718458	      0.00000000	     11.17390601	     -5.58415773	     11.47613260	     11.77710523	      0.20554926	     35.70815918	      3.96517954	      0.00000000	      0.25976286	      1.02134892	     -1.68437940	      0.48240561	      1.35839406	     -1.78965312	      0.42676440	      2.48330776	     -1.78965312	      0.29688297	      2.48330776	     -1.47383198	      0.24121579	      2.08273471	     -1.36855827	      0.14842850	      1.58206947	     -1.26328455	      1.85546013	     11.55370321	     -9.36801293	      0.00000000	      0.00000000	     21.29622831	      9.52602776	     11.01714891	     24.89632847	    -15.97059020	     75.85974017	     55.28220589	     88.57940034	     12.92933298	      6.59803208	      8.21914701	    -11.36615357	     43.48419118	     54.62310527	     49.16574878	     -7.15864307	      1.65443367
